# Blender 3.6.5
# www.blender.org
mtllib beam.mtl
o defaultMaterial
v -2.434623 -0.500000 -0.434248
v -1.243397 -0.457335 -0.391583
v -1.243397 -0.457335 0.391583
v -2.434623 -0.500000 0.434248
v 0.000000 -0.433205 -0.367454
v 1.243397 -0.457335 -0.391583
v 1.243397 -0.457335 0.391583
v 0.000000 -0.433205 0.367454
v -1.243397 0.457335 -0.391583
v -2.434623 0.500000 -0.434248
v -2.434623 0.500000 0.434248
v -1.243397 0.457335 0.391583
v 2.434623 -0.434248 0.500000
v 2.434623 0.434248 0.500000
v 1.243397 0.391583 0.457335
v 1.243397 -0.391583 0.457335
v 2.434623 0.500000 -0.434248
v 1.243397 0.457335 -0.391583
v 1.243397 0.457335 0.391583
v 2.434623 0.500000 0.434248
v 2.500000 -0.436617 -0.436617
v 2.500000 0.436617 -0.436617
v 2.500000 0.436617 0.436617
v 2.500000 -0.436617 0.436617
v -2.500000 -0.436617 0.436617
v -2.500000 0.436617 0.436617
v -2.500000 0.436617 -0.436617
v -2.500000 -0.436617 -0.436617
v 0.000000 0.433205 -0.367454
v 0.000000 0.433205 0.367454
v -1.243397 -0.391583 0.457335
v -1.243397 0.391583 0.457335
v -2.434623 0.434248 0.500000
v -2.434623 -0.434248 0.500000
v -1.243397 -0.391583 -0.457335
v -1.243397 0.391583 -0.457335
v 0.000000 0.367454 -0.433205
v 0.000000 -0.367454 -0.433205
v 1.243397 0.391583 -0.457335
v 1.243397 -0.391583 -0.457335
v -2.434623 -0.434248 -0.500000
v -2.434623 0.434248 -0.500000
v 2.434623 -0.500000 -0.434248
v 2.434623 -0.500000 0.434248
v 0.000000 0.367454 0.433205
v 0.000000 -0.367454 0.433205
v 2.434623 0.434248 -0.500000
v 2.500000 0.436617 -0.436617
v 2.434623 -0.434248 -0.500000
v 2.500000 -0.436617 -0.436617
v 2.500000 0.436617 0.436617
v 2.500000 -0.436617 0.436617
v -2.500000 0.436617 -0.436617
v -2.500000 -0.436617 -0.436617
v -2.434623 -0.434248 -0.500000
v -2.500000 0.436617 0.436617
v -2.500000 -0.436617 0.436617
v -2.500000 -0.436617 0.436617
v -2.500000 -0.436617 -0.436617
v -1.243397 -0.391583 -0.457335
v 2.500000 0.436617 -0.436617
v 2.500000 -0.436617 -0.436617
v 2.434623 -0.434248 -0.500000
v -2.500000 0.436617 0.436617
v -2.500000 -0.436617 0.436617
v 2.500000 -0.436617 0.436617
v 2.500000 0.436617 0.436617
v -2.500000 -0.436617 -0.436617
v -2.500000 0.436617 -0.436617
v 2.500000 0.436617 0.436617
v 2.500000 0.436617 -0.436617
v -2.500000 0.436617 -0.436617
v -2.500000 0.436617 0.436617
v 2.500000 -0.436617 -0.436617
v 2.500000 -0.436617 0.436617
v 1.243397 -0.391583 -0.457335
v 0.000000 -0.367454 -0.433205
vn -0.3112 -0.8851 0.3460
vn -0.3112 -0.8851 -0.3460
vn 0.0361 -0.9237 -0.3814
vn 0.0361 -0.9237 0.3814
vn -0.0000 -0.9249 0.3803
vn -0.0000 -0.9249 -0.3803
vn -0.0361 -0.9237 -0.3814
vn -0.0361 -0.9237 0.3814
vn 0.0361 0.9237 0.3814
vn 0.0361 0.9237 -0.3814
vn -0.3112 0.8851 -0.3460
vn -0.3112 0.8851 0.3460
vn -0.0361 -0.3814 0.9237
vn 0.3112 -0.3460 0.8851
vn 0.3112 0.3460 0.8851
vn -0.0361 0.3814 0.9237
vn 0.3112 0.8851 0.3460
vn 0.3112 0.8851 -0.3460
vn -0.0361 0.9237 -0.3814
vn -0.0361 0.9237 0.3814
vn 0.8677 -0.3515 0.3515
vn 0.8677 -0.3515 -0.3515
vn 0.8677 0.3515 -0.3515
vn 0.8677 0.3515 0.3515
vn -0.8677 -0.3515 -0.3515
vn -0.8677 -0.3515 0.3515
vn -0.8677 0.3515 0.3515
vn -0.8677 0.3515 -0.3515
vn -0.0000 0.9249 -0.3803
vn -0.0000 0.9249 0.3803
vn -0.3112 -0.3460 0.8851
vn 0.0361 -0.3814 0.9237
vn 0.0361 0.3814 0.9237
vn -0.3112 0.3460 0.8851
vn -0.0000 -0.3803 -0.9249
vn 0.0361 -0.3814 -0.9237
vn 0.0361 0.3814 -0.9237
vn -0.0000 0.3803 -0.9249
vn -0.0361 -0.3814 -0.9237
vn -0.0361 0.3814 -0.9237
vn -0.3113 -0.3462 -0.8850
vn -0.3112 0.3460 -0.8851
vn 0.3112 -0.8851 -0.3460
vn 0.3112 -0.8851 0.3460
vn -0.0000 -0.3803 0.9249
vn -0.0000 0.3803 0.9249
vn 0.3112 0.3460 -0.8851
vn 0.8688 0.3502 -0.3502
vn 0.3111 -0.3459 -0.8852
vn 0.8688 -0.3502 -0.3502
vn 0.8688 0.3502 0.3502
vn 0.8688 -0.3502 0.3502
vn -0.8688 0.3502 -0.3502
vn -0.8688 -0.3502 -0.3502
vn -0.3111 -0.3459 -0.8852
vn -0.8688 0.3502 0.3502
vn -0.8688 -0.3502 0.3502
vn -0.8685 -0.3495 -0.3515
vn -0.8685 -0.3495 0.3515
vn 0.8685 0.3515 -0.3495
vn 0.8685 -0.3515 -0.3495
vn 0.3113 -0.3462 -0.8850
vn -0.8685 -0.3515 0.3495
vn -0.8685 0.3515 0.3495
vn 0.8685 0.3515 0.3495
vn 0.8685 -0.3515 0.3495
vn -0.8685 0.3515 -0.3495
vn -0.8685 -0.3515 -0.3495
vn 0.8685 0.3495 -0.3515
vn 0.8685 0.3495 0.3515
vn -0.8685 0.3495 0.3515
vn -0.8685 0.3495 -0.3515
vn 0.8685 -0.3495 0.3515
vn 0.8685 -0.3495 -0.3515
vn -0.0000 -0.3803 -0.9248
vt 0.190353 0.032128
vt 0.029094 0.041677
vt 0.049467 0.266438
vt 0.198497 0.259061
vt 0.203148 0.501522
vt 0.060828 0.503021
vt 0.052603 0.738566
vt 0.200669 0.743757
vt 0.385069 0.257073
vt 0.535445 0.259432
vt 0.546480 0.033083
vt 0.385944 0.028635
vt 0.218423 0.744113
vt 0.211658 0.970519
vt 0.371335 0.971534
vt 0.368761 0.745282
vt 0.388778 0.971356
vt 0.548613 0.966648
vt 0.536425 0.741270
vt 0.386554 0.745121
vt 0.916899 0.822336
vt 0.750916 0.822336
vt 0.750916 0.988319
vt 0.916899 0.988319
vt 0.916899 0.798974
vt 0.916899 0.632991
vt 0.750916 0.632991
vt 0.750916 0.798973
vt 0.530043 0.500523
vt 0.385114 0.501650
vt 0.207863 0.031509
vt 0.216287 0.258548
vt 0.367152 0.257032
vt 0.368326 0.028554
vt 0.687630 0.500838
vt 0.700935 0.268789
vt 0.553138 0.260062
vt 0.547945 0.500488
vt 0.700426 0.731910
vt 0.554061 0.740557
vt 0.725821 0.046188
vt 0.563950 0.033907
vt 0.034589 0.960986
vt 0.194194 0.970001
vt 0.221203 0.501425
vt 0.366945 0.501717
vt 0.566006 0.965716
vt 0.558097 0.980881
vt 0.017397 0.959599
vt 0.024820 0.974821
vt 0.380207 0.986186
vt 0.202488 0.985019
vt 0.555911 0.018732
vt 0.019058 0.027748
vt 0.011681 0.043251
vt 0.377204 0.013705
vt 0.198585 0.017021
vt 0.027651 0.024754
vt 0.189790 0.015154
vt 0.031966 0.267654
vt 0.566986 0.982537
vt 0.727554 0.968996
vt 0.725702 0.952248
vt 0.207115 0.014652
vt 0.368454 0.011681
vt 0.371664 0.988319
vt 0.211115 0.987298
vt 0.564799 0.016861
vt 0.727554 0.029209
vt 0.549543 0.983434
vt 0.388836 0.988168
vt 0.385974 0.011750
vt 0.547386 0.016223
vt 0.193682 0.986800
vt 0.033206 0.977736
vt 0.035277 0.737568
vt 0.043286 0.503143
s 1
usemtl Material.001
f 4/1/1 1/2/2 2/3/3
f 2/3/3 3/4/4 4/1/1
f 8/5/5 5/6/6 6/7/7
f 6/7/7 7/8/8 8/5/5
f 12/9/9 9/10/10 10/11/11
f 10/11/11 11/12/12 12/9/9
f 16/13/13 13/14/14 14/15/15
f 14/15/15 15/16/16 16/13/13
f 20/17/17 17/18/18 18/19/19
f 18/19/19 19/20/20 20/17/17
f 24/21/21 21/22/22 22/23/23
f 22/23/23 23/24/24 24/21/21
f 28/25/25 25/26/26 26/27/27
f 26/27/27 27/28/28 28/25/25
f 19/20/20 18/19/19 29/29/29
f 29/29/29 30/30/30 19/20/20
f 3/4/4 2/3/3 5/6/6
f 5/6/6 8/5/5 3/4/4
f 34/31/31 31/32/32 32/33/33
f 32/33/33 33/34/34 34/31/31
f 38/35/35 35/36/36 36/37/37
f 36/37/37 37/38/38 38/35/35
f 40/39/39 38/35/35 37/38/38
f 37/38/38 39/40/40 40/39/39
f 35/36/36 41/41/41 42/42/42
f 42/42/42 36/37/37 35/36/36
f 30/30/30 29/29/29 9/10/10
f 9/10/10 12/9/9 30/30/30
f 7/8/8 6/7/7 43/43/43
f 43/43/43 44/44/44 7/8/8
f 46/45/45 16/13/13 15/16/16
f 15/16/16 45/46/46 46/45/45
f 31/32/32 46/45/45 45/46/46
f 45/46/46 32/33/33 31/32/32
f 47/47/47 17/18/18 48/48/48
f 49/49/49 50/50/50 43/43/43
f 14/15/15 51/51/51 20/17/17
f 52/52/52 13/14/14 44/44/44
f 42/42/42 53/53/53 10/11/11
f 54/54/54 55/55/55 1/2/2
f 56/56/56 33/34/34 11/12/12
f 4/1/1 34/31/31 57/57/57
f 59/58/58 1/2/2 4/1/1
f 4/1/1 58/59/59 59/58/58
f 60/60/36 2/3/3 1/2/2
f 1/2/2 55/55/55 60/60/36
f 47/47/47 61/61/60 62/62/61
f 62/62/61 63/63/62 47/47/47
f 65/64/63 34/31/31 33/34/34
f 33/34/34 64/65/64 65/64/63
f 67/66/65 14/15/15 13/14/14
f 13/14/14 66/67/66 67/66/65
f 69/68/67 42/42/42 41/41/41
f 41/41/41 68/69/68 69/68/67
f 32/33/33 12/9/9 11/12/12
f 11/12/12 33/34/34 32/33/33
f 71/70/69 17/18/18 20/17/17
f 20/17/17 70/71/70 71/70/69
f 16/13/13 7/8/8 44/44/44
f 44/44/44 13/14/14 16/13/13
f 73/72/71 11/12/12 10/11/11
f 10/11/11 72/73/72 73/72/71
f 39/40/40 18/19/19 17/18/18
f 17/18/18 47/47/47 39/40/40
f 75/74/73 44/44/44 43/43/43
f 43/43/43 74/75/74 75/74/73
f 49/49/49 43/43/43 6/7/7
f 6/7/7 76/76/39 49/49/49
f 76/76/39 6/7/7 5/6/6
f 5/6/6 77/77/75 76/76/39
f 77/77/75 5/6/6 2/3/3
f 2/3/3 60/60/36 77/77/75
f 14/15/15 20/17/17 19/20/20
f 19/20/20 15/16/16 14/15/15
f 15/16/16 19/20/20 30/30/30
f 30/30/30 45/46/46 15/16/16
f 45/46/46 30/30/30 12/9/9
f 12/9/9 32/33/33 45/46/46
f 34/31/31 4/1/1 3/4/4
f 3/4/4 31/32/32 34/31/31
f 31/32/32 3/4/4 8/5/5
f 8/5/5 46/45/45 31/32/32
f 46/45/45 8/5/5 7/8/8
f 7/8/8 16/13/13 46/45/45
f 42/42/42 10/11/11 9/10/10
f 9/10/10 36/37/37 42/42/42
f 36/37/37 9/10/10 29/29/29
f 29/29/29 37/38/38 36/37/37
f 37/38/38 29/29/29 18/19/19
f 18/19/19 39/40/40 37/38/38
f 63/63/62 40/39/39 39/40/40
f 39/40/40 47/47/47 63/63/62
