# Blender 3.6.5
# www.blender.org
mtllib chest.mtl
o ChestTop
v -0.524865 0.603292 0.340581
v -0.459293 0.603292 -0.204788
v -0.459293 0.603292 0.273347
v -0.524866 0.603292 -0.272022
v -0.524866 0.820247 -0.182308
v -0.524865 0.910113 0.034280
v -0.524865 0.820247 0.250868
v -0.459293 0.717051 -0.157888
v -0.459293 0.717052 0.226447
v -0.459293 0.826491 -0.059324
v -0.459293 0.826491 0.127884
v -0.442108 0.603292 0.340581
v -0.386746 0.603292 0.273347
v -0.386746 0.717052 0.226447
v -0.386746 0.826491 0.127884
v -0.386747 0.603292 -0.204788
v -0.442108 0.603292 -0.272022
v -0.442108 0.820247 -0.182308
v -0.442108 0.910113 0.034280
v -0.442108 0.820247 0.250868
v -0.386747 0.717051 -0.157888
v -0.386746 0.826491 -0.059324
v -0.438072 0.603303 0.370457
v -0.528901 0.603303 0.370457
v -0.528901 0.841420 -0.203433
v -0.528901 0.603303 -0.301897
v -0.528901 0.940051 0.034280
v -0.528901 0.841420 0.271993
v -0.438072 0.603303 -0.301897
v -0.438072 0.841420 -0.203433
v -0.438072 0.940051 0.034280
v -0.438072 0.841420 0.271993
v 0.538022 0.603292 0.340581
v 0.472449 0.603292 -0.204788
v 0.472449 0.603292 0.273347
v 0.538021 0.603292 -0.272022
v 0.538021 0.820247 -0.182308
v 0.538021 0.910113 0.034279
v 0.538022 0.820247 0.250867
v 0.472449 0.717051 -0.157888
v 0.472449 0.717051 0.226447
v 0.472449 0.826491 -0.059325
v 0.472449 0.826491 0.127884
v 0.455264 0.603292 0.340581
v 0.399902 0.603292 0.273347
v 0.399902 0.717051 0.226447
v 0.399902 0.826491 0.127884
v 0.399902 0.603292 -0.204788
v 0.455264 0.603292 -0.272022
v 0.455264 0.820247 -0.182308
v 0.455264 0.910113 0.034279
v 0.455264 0.820247 0.250867
v 0.399902 0.717051 -0.157888
v 0.399902 0.826491 -0.059325
v 0.451228 0.603303 0.370457
v 0.542057 0.603303 0.370457
v 0.542057 0.841420 -0.203434
v 0.542057 0.603303 -0.301898
v 0.542057 0.940051 0.034279
v 0.542057 0.841420 0.271992
v 0.451228 0.603303 -0.301898
v 0.451228 0.841420 -0.203434
v 0.451228 0.940051 0.034279
v 0.451228 0.841420 0.271993
v -0.474825 0.085717 -0.212143
v -0.422917 0.085519 -0.268770
v -0.406312 -0.004268 -0.201873
v -0.552516 0.468286 -0.264810
v -0.527975 0.606357 -0.277412
v -0.507820 0.468484 -0.321486
v -0.474825 0.085717 0.228658
v -0.406312 -0.004268 0.211367
v -0.422201 0.083561 0.286998
v -0.527975 0.606357 0.351425
v -0.552516 0.468286 0.305325
v -0.508865 0.475361 0.365782
v -0.463458 0.606357 -0.208189
v -0.463458 0.606357 0.282202
v -0.347982 0.026568 -0.147899
v -0.347982 0.026568 0.221912
v -0.411330 0.468484 -0.321486
v -0.318448 -0.004268 -0.201873
v -0.427714 0.606357 0.351425
v -0.331364 0.083561 0.286998
v -0.375268 0.606357 0.282202
v -0.281397 0.026568 0.221912
v -0.427714 0.606357 -0.277412
v -0.331945 0.085519 -0.268770
v -0.412179 0.475361 0.365782
v -0.318448 -0.004268 0.211367
v -0.375268 0.606357 -0.208189
v -0.281397 0.026568 -0.147899
v -0.422917 0.087979 -0.289358
v -0.406312 -0.004268 -0.217705
v -0.527975 0.606357 -0.298614
v -0.507820 0.470944 -0.345821
v -0.406312 -0.004268 0.224907
v -0.422201 0.083561 0.305914
v -0.508865 0.475361 0.391789
v -0.527975 0.606357 0.374920
v -0.411330 0.470944 -0.345821
v -0.318448 -0.004268 -0.217705
v -0.427714 0.606357 0.374920
v -0.331364 0.083561 0.305914
v -0.427714 0.606357 -0.298614
v -0.331945 0.087979 -0.289358
v -0.412179 0.475361 0.391789
v -0.318448 -0.004268 0.224907
v -0.055414 0.473272 0.389002
v -0.055414 0.604255 0.374263
v -0.028008 0.500647 0.385850
v -0.028007 0.576727 0.377288
v -0.028008 0.500647 0.401648
v -0.028007 0.576727 0.393086
v -0.003260 0.516678 0.399802
v -0.003260 0.560606 0.394858
v -0.003260 0.516678 0.388085
v -0.003260 0.560606 0.383142
v 0.490630 0.085717 -0.212143
v 0.438722 0.085519 -0.268770
v 0.422117 -0.004268 -0.201873
v 0.568321 0.468286 -0.264810
v 0.543780 0.606357 -0.277412
v 0.523625 0.468484 -0.321486
v 0.490630 0.085717 0.228658
v 0.422117 -0.004268 0.211367
v 0.438006 0.083561 0.286998
v 0.543780 0.606357 0.351426
v 0.568321 0.468286 0.305325
v 0.524670 0.475361 0.365782
v 0.479263 0.606357 -0.208189
v 0.479263 0.606357 0.282202
v 0.363787 0.026568 -0.147899
v 0.363787 0.026568 0.221912
v 0.427135 0.468484 -0.321486
v 0.334253 -0.004268 -0.201873
v 0.443519 0.606357 0.351426
v 0.347169 0.083561 0.286998
v 0.391073 0.606357 0.282202
v 0.297202 0.026568 0.221912
v 0.443519 0.606357 -0.277412
v 0.347750 0.085519 -0.268770
v 0.427985 0.475361 0.365782
v 0.334253 -0.004268 0.211367
v 0.391073 0.606357 -0.208189
v 0.297202 0.026568 -0.147899
v 0.438722 0.087978 -0.289358
v 0.422117 -0.004268 -0.217705
v 0.543780 0.606357 -0.298614
v 0.523625 0.470944 -0.345821
v 0.422117 -0.004268 0.224907
v 0.438006 0.083561 0.305914
v 0.524670 0.475361 0.391789
v 0.543780 0.606357 0.374920
v 0.427135 0.470944 -0.345821
v 0.334253 -0.004268 -0.217705
v 0.443519 0.606357 0.374920
v 0.347169 0.083561 0.305914
v 0.443519 0.606357 -0.298614
v 0.347750 0.087978 -0.289358
v 0.427985 0.475361 0.391789
v 0.334253 -0.004268 0.224907
v 0.071219 0.473272 0.389002
v 0.071219 0.604255 0.374263
v 0.043813 0.500647 0.385850
v 0.043813 0.576727 0.377288
v 0.043813 0.500647 0.401648
v 0.043813 0.576727 0.393086
v 0.019065 0.516678 0.399802
v 0.019065 0.560606 0.394858
v 0.019065 0.516678 0.388085
v 0.019065 0.560606 0.383142
vn -0.9895 -0.0553 0.1337
vn 0.9895 -0.1334 0.0553
vn -1.0000 -0.0000 -0.0000
vn -0.9895 -0.0553 -0.1337
vn 0.9895 -0.0553 -0.1337
vn -0.0000 -1.0000 0.0002
vn -0.0000 -1.0000 -0.0002
vn -0.0000 -1.0000 -0.0000
vn -0.0000 -1.0000 0.0001
vn -0.0000 -0.3812 -0.9245
vn 1.0000 -0.0000 -0.0000
vn -0.0000 -0.6692 -0.7431
vn -0.0000 -1.0000 -0.0001
vn -0.0000 -0.3812 0.9245
vn -0.0000 -0.6692 0.7431
vn -0.0000 0.9237 0.3832
vn -0.0000 0.3821 0.9241
vn -0.0000 0.9236 -0.3832
vn -0.0000 0.3821 -0.9241
vn -0.0000 0.9236 0.3832
vn 0.9895 -0.0553 0.1337
vn -0.9895 -0.1334 0.0553
vn 0.9895 -0.1334 -0.0553
vn -0.0000 -1.0000 0.0004
vn -0.9895 -0.1334 -0.0553
vn -0.0000 -1.0000 -0.0004
vn 0.9894 0.1455 -0.0000
vn -0.0000 1.0000 -0.0000
vn -0.9800 -0.1990 -0.0000
vn -0.6221 -0.5385 -0.5684
vn -0.7827 0.0828 -0.6169
vn -0.6185 -0.5740 0.5367
vn -0.8067 -0.0532 0.5886
vn -0.7381 -0.2434 -0.6293
vn 0.9879 0.1544 0.0104
vn -0.7402 -0.2798 0.6114
vn -0.9846 0.1750 -0.0000
vn -0.7956 -0.6058 -0.0000
vn -0.0000 0.1034 0.9946
vn 0.9807 0.1953 -0.0000
vn -0.0000 -0.6525 0.7578
vn -0.0000 -0.9988 -0.0492
vn -0.0000 0.1118 0.9937
vn 0.9931 0.1170 0.0063
vn -0.9764 -0.2160 -0.0000
vn -0.0000 0.1034 -0.9946
vn -0.0000 -0.1364 -0.9907
vn -0.0000 0.3045 -0.9525
vn -0.0000 -0.1971 0.9804
vn -0.0000 -0.2141 0.9768
vn -0.0000 -0.6134 -0.7897
vn 0.0052 0.1204 0.9927
vn -0.0000 0.1277 0.9918
vn 0.0002 0.1274 0.9919
vn -0.0000 0.3292 -0.9443
vn -0.0000 -0.6780 0.7351
vn -0.0000 -0.1459 -0.9893
vn -0.9896 -0.1434 -0.0077
vn -0.9753 -0.2196 -0.0241
vn 0.9783 0.2060 0.0226
vn 0.9794 0.2020 -0.0000
vn -0.9840 -0.1780 -0.0000
vn -0.9895 -0.1444 -0.0000
vn -0.9819 -0.1888 -0.0128
vn 0.0012 0.1104 0.9939
vn 0.0012 0.1129 0.9936
vn -0.0000 -0.5975 -0.8019
vn 0.0013 0.1105 0.9939
vn -0.0013 0.1105 0.9939
vn -0.0012 0.1104 0.9939
vn -0.0012 0.1129 0.9936
vn -0.0013 0.1131 0.9936
vn 0.0013 0.1131 0.9936
vn -0.0002 0.1141 0.9935
vn -0.0016 0.1120 0.9937
vn 0.0016 0.1120 0.9937
vn 0.0002 0.1141 0.9935
vn 0.0016 0.1117 0.9937
vn -0.0016 0.1117 0.9937
vn -0.0002 0.1096 0.9940
vn 0.0002 0.1096 0.9940
vn -0.0000 0.9986 0.0520
vn -0.9894 0.1455 -0.0000
vn 0.9800 -0.1990 -0.0000
vn 0.6221 -0.5385 -0.5684
vn 0.7827 0.0828 -0.6169
vn 0.6185 -0.5740 0.5367
vn 0.8067 -0.0532 0.5886
vn 0.7381 -0.2434 -0.6293
vn -0.9879 0.1545 0.0104
vn 0.7402 -0.2798 0.6114
vn 0.9846 0.1750 -0.0000
vn 0.7956 -0.6058 -0.0000
vn -0.9807 0.1953 -0.0000
vn -0.9931 0.1170 0.0063
vn 0.9764 -0.2160 -0.0000
vn -0.0052 0.1204 0.9927
vn -0.0002 0.1274 0.9919
vn 0.9896 -0.1434 -0.0077
vn 0.9753 -0.2196 -0.0241
vn -0.9783 0.2060 0.0226
vn -0.9794 0.2020 -0.0000
vn 0.9840 -0.1780 -0.0000
vn 0.9895 -0.1444 -0.0000
vn 0.9819 -0.1888 -0.0128
s 1
usemtl Wood
f 1//3 7//3 6//3 5//3 4//3
f 1//6 4//7 2//8 3//8
f 12//9 1//6 3//8 13//8
f 13//10 3//10 9//10 14//10
f 3//11 2//11 8//11 9//11
f 14//12 9//12 11//12 15//12
f 9//11 8//11 10//11 11//11
f 22//8 15//8 11//8 10//8
f 15//12 47//12 46//12 14//12
f 14//10 46//10 45//10 13//10
f 4//7 17//13 16//8 2//8
f 2//14 16//14 21//14 8//14
f 8//15 21//15 22//15 10//15
f 53//15 54//15 22//15 21//15
f 48//14 53//14 21//14 16//14
f 13//8 45//8 44//9 12//9
f 20//16 52//16 51//16 19//16
f 12//17 44//17 52//17 20//17
f 19//18 51//18 50//18 18//18
f 18//19 50//19 49//19 17//19
f 49//13 48//8 16//8 17//13
f 33//11 36//11 37//11 38//11 39//11
f 33//6 35//8 34//8 36//7
f 44//9 45//8 35//8 33//6
f 45//10 46//10 41//10 35//10
f 35//3 41//3 40//3 34//3
f 46//12 47//12 43//12 41//12
f 41//3 43//3 42//3 40//3
f 54//8 42//8 43//8 47//8
f 36//7 34//8 48//8 49//13
f 34//14 40//14 53//14 48//14
f 40//15 42//15 54//15 53//15
f 22//8 54//8 47//8 15//8
f 87//28 69//28 77//28 91//28
f 75//29 68//29 65//29 71//29
f 65//30 66//30 67//30
f 68//31 69//31 70//31
f 71//32 72//32 73//32
f 74//33 75//33 76//33
f 65//34 68//34 70//34 66//34
f 69//28 87//28 105//28 95//28
f 75//36 71//36 73//36 76//36
f 74//37 69//37 68//37 75//37
f 67//38 72//38 71//38 65//38
f 91//39 77//39 79//39 92//39
f 69//28 74//28 78//28 77//28
f 77//40 78//40 80//40 79//40
f 140//28 146//28 92//28 86//28
f 137//28 139//28 85//28 83//28
f 92//39 146//39 145//39 91//39
f 144//41 138//41 84//41 90//41
f 91//28 145//28 141//28 87//28
f 67//8 82//8 90//8 72//8
f 74//28 83//28 85//28 78//28
f 80//28 86//28 92//28 79//28
f 78//46 85//46 86//46 80//46
f 135//47 142//47 88//47 81//47
f 141//48 135//48 81//48 87//48
f 84//49 138//49 143//49 89//49
f 136//8 144//8 90//8 82//8
f 72//8 90//8 108//8 97//8
f 88//67 142//67 136//67 82//67
f 141//28 145//28 131//28 123//28
f 129//84 125//84 119//84 122//84
f 119//85 121//85 120//85
f 122//86 124//86 123//86
f 125//87 127//87 126//87
f 128//88 130//88 129//88
f 119//89 120//89 124//89 122//89
f 123//28 149//28 159//28 141//28
f 129//91 130//91 127//91 125//91
f 128//92 129//92 122//92 123//92
f 121//93 119//93 125//93 126//93
f 145//39 146//39 133//39 131//39
f 123//28 131//28 132//28 128//28
f 131//94 133//94 134//94 132//94
f 121//8 126//8 144//8 136//8
f 128//28 132//28 139//28 137//28
f 134//28 133//28 146//28 140//28
f 132//46 134//46 140//46 139//46
f 126//8 151//8 162//8 144//8
f 139//46 140//46 86//46 85//46
usemtl Steel
f 4//1 5//1 25//1 26//1
f 19//2 18//2 30//2 31//2
f 7//4 1//4 24//4 28//4
f 12//5 20//5 32//5 23//5
f 29//19 26//19 25//19 30//19
f 30//18 25//18 27//18 31//18
f 32//17 28//17 24//17 23//17
f 31//20 27//20 28//20 32//20
f 18//21 17//21 29//21 30//21
f 5//22 6//22 27//22 25//22
f 20//23 19//23 31//23 32//23
f 1//6 12//9 23//24 24//24
f 6//25 7//25 28//25 27//25
f 17//13 4//7 26//26 29//26
f 36//21 58//21 57//21 37//21
f 51//22 63//22 62//22 50//22
f 39//5 60//5 56//5 33//5
f 44//4 55//4 64//4 52//4
f 61//19 62//19 57//19 58//19
f 62//18 63//18 59//18 57//18
f 64//17 55//17 56//17 60//17
f 63//20 64//20 60//20 59//20
f 50//1 62//1 61//1 49//1
f 37//2 57//2 59//2 38//2
f 52//25 64//25 63//25 51//25
f 33//6 56//24 55//24 44//9
f 38//23 59//23 60//23 39//23
f 49//13 61//26 58//26 36//7
f 90//27 84//27 104//27 108//27
f 88//35 82//35 102//35 106//35
f 143//42 161//42 163//42 109//42 107//42 89//42
f 87//44 81//44 101//44 105//44
f 76//45 73//45 98//45 99//45
f 107//50 99//50 98//50 104//50
f 102//51 94//51 93//51 106//51
f 103//52 100//53 99//53 107//54
f 95//55 105//55 101//55 96//55
f 97//56 108//56 104//56 98//56
f 96//57 101//57 106//57 93//57
f 70//58 69//58 95//58 96//58
f 66//59 70//59 96//59 93//59
f 81//60 88//60 106//60 101//60
f 84//61 89//61 107//61 104//61
f 82//8 67//8 94//8 102//8
f 73//62 72//62 97//62 98//62
f 83//28 74//28 100//28 103//28
f 74//63 76//63 99//63 100//63
f 67//64 66//64 93//64 94//64
f 110//65 103//52 107//54 109//66
f 112//68 166//69 164//70 110//65
f 163//71 165//72 111//73 109//66
f 110//65 109//66 111//73 112//68
f 110//82 164//82 157//82 137//82 83//82 103//82
f 144//83 162//83 158//83 138//83
f 142//90 160//90 156//90 136//90
f 141//95 159//95 155//95 135//95
f 130//96 153//96 152//96 127//96
f 161//50 158//50 152//50 153//50
f 156//51 160//51 147//51 148//51
f 157//97 161//98 153//53 154//53
f 149//55 150//55 155//55 159//55
f 151//56 152//56 158//56 162//56
f 150//57 147//57 160//57 155//57
f 124//99 150//99 149//99 123//99
f 120//100 147//100 150//100 124//100
f 135//101 155//101 160//101 142//101
f 138//102 158//102 161//102 143//102
f 136//8 156//8 148//8 121//8
f 127//103 152//103 151//103 126//103
f 137//28 157//28 154//28 128//28
f 128//104 154//104 153//104 130//104
f 121//105 148//105 147//105 120//105
f 164//70 163//71 161//98 157//97
f 164//70 166//69 165//72 163//71
usemtl DarkSteel
f 117//43 171//43 172//43 118//43
f 165//8 167//8 113//8 111//8
f 114//28 168//28 166//28 112//28
f 167//74 169//75 115//76 113//77
f 112//3 111//3 113//3 114//3
f 116//78 170//79 168//80 114//81
f 169//28 171//28 117//28 115//28
f 114//81 113//77 115//76 116//78
f 118//8 172//8 170//8 116//8
f 116//11 115//11 117//11 118//11
f 166//11 168//11 167//11 165//11
f 168//80 170//79 169//75 167//74
f 170//3 172//3 171//3 169//3
